<svg id="visual" viewBox="0 0 900 600" width="900" height="600" xmlns="http://www.w3.org/2000/svg" xmlns:xlink="http://www.w3.org/1999/xlink" version="1.1"><path d="M0 58L21.5 62.7C43 67.3 86 76.7 128.8 74C171.7 71.3 214.3 56.7 257.2 56.2C300 55.7 343 69.3 385.8 76.7C428.7 84 471.3 85 514.2 80C557 75 600 64 642.8 60.3C685.7 56.7 728.3 60.3 771.2 66C814 71.7 857 79.3 878.5 83.2L900 87L900 0L878.5 0C857 0 814 0 771.2 0C728.3 0 685.7 0 642.8 0C600 0 557 0 514.2 0C471.3 0 428.7 0 385.8 0C343 0 300 0 257.2 0C214.3 0 171.7 0 128.8 0C86 0 43 0 21.5 0L0 0Z" fill="#edbc51" stroke-linecap="round" stroke-linejoin="miter"></path></svg>