<svg id="visual" viewBox="0 0 900 600" width="900" height="600" xmlns="http://www.w3.org/2000/svg" xmlns:xlink="http://www.w3.org/1999/xlink" version="1.1"><path d="M0 291L21.5 296.5C43 302 86 313 128.8 293.2C171.7 273.3 214.3 222.7 257.2 216.3C300 210 343 248 385.8 248.8C428.7 249.7 471.3 213.3 514.2 224.7C557 236 600 295 642.8 312.3C685.7 329.7 728.3 305.3 771.2 279.8C814 254.3 857 227.7 878.5 214.3L900 201L900 0L878.5 0C857 0 814 0 771.2 0C728.3 0 685.7 0 642.8 0C600 0 557 0 514.2 0C471.3 0 428.7 0 385.8 0C343 0 300 0 257.2 0C214.3 0 171.7 0 128.8 0C86 0 43 0 21.5 0L0 0Z" fill="#a89ef2" stroke-linecap="round" stroke-linejoin="miter"></path></svg>