<svg id="visual" viewBox="0 0 900 600" width="900" height="600" xmlns="http://www.w3.org/2000/svg" xmlns:xlink="http://www.w3.org/1999/xlink" version="1.1"><path d="M0 327L21.5 333.2C43 339.3 86 351.7 128.8 329.5C171.7 307.3 214.3 250.7 257.2 243.7C300 236.7 343 279.3 385.8 280.3C428.7 281.3 471.3 240.7 514.2 253.5C557 266.3 600 332.7 642.8 352C685.7 371.3 728.3 343.7 771.2 315C814 286.3 857 256.7 878.5 241.8L900 227L900 0L878.5 0C857 0 814 0 771.2 0C728.3 0 685.7 0 642.8 0C600 0 557 0 514.2 0C471.3 0 428.7 0 385.8 0C343 0 300 0 257.2 0C214.3 0 171.7 0 128.8 0C86 0 43 0 21.5 0L0 0Z" fill="#F7CACA" stroke-linecap="round" stroke-linejoin="miter"></path></svg>