<svg id="visual" viewBox="0 0 900 600" width="900" height="600" xmlns="http://www.w3.org/2000/svg" xmlns:xlink="http://www.w3.org/1999/xlink" version="1.1"><path d="M0 235L21.5 243.3C43 251.7 86 268.3 128.8 295.7C171.7 323 214.3 361 257.2 352.3C300 343.7 343 288.3 385.8 246.3C428.7 204.3 471.3 175.7 514.2 192.2C557 208.7 600 270.3 642.8 278.2C685.7 286 728.3 240 771.2 208.2C814 176.3 857 158.7 878.5 149.8L900 141L900 0L878.5 0C857 0 814 0 771.2 0C728.3 0 685.7 0 642.8 0C600 0 557 0 514.2 0C471.3 0 428.7 0 385.8 0C343 0 300 0 257.2 0C214.3 0 171.7 0 128.8 0C86 0 43 0 21.5 0L0 0Z" fill="#F7CACA" stroke-linecap="round" stroke-linejoin="miter"></path></svg>