<svg id="visual" viewBox="0 0 900 600" width="900" height="600" xmlns="http://www.w3.org/2000/svg" xmlns:xlink="http://www.w3.org/1999/xlink" version="1.1"><path d="M0 264L21.5 285.5C43 307 86 350 128.8 338C171.7 326 214.3 259 257.2 256.3C300 253.7 343 315.3 385.8 348.5C428.7 381.7 471.3 386.3 514.2 364C557 341.7 600 292.3 642.8 275.8C685.7 259.3 728.3 275.7 771.2 301.2C814 326.7 857 361.3 878.5 378.7L900 396L900 0L878.5 0C857 0 814 0 771.2 0C728.3 0 685.7 0 642.8 0C600 0 557 0 514.2 0C471.3 0 428.7 0 385.8 0C343 0 300 0 257.2 0C214.3 0 171.7 0 128.8 0C86 0 43 0 21.5 0L0 0Z" fill="#edbc51" stroke-linecap="round" stroke-linejoin="miter"></path></svg>