<svg id="visual" viewBox="0 0 900 600" width="900" height="600" xmlns="http://www.w3.org/2000/svg" xmlns:xlink="http://www.w3.org/1999/xlink" version="1.1"><path d="M0 374L15 371.5C30 369 60 364 90 341.3C120 318.7 150 278.3 180 268.2C210 258 240 278 270 298.8C300 319.7 330 341.3 360 337.8C390 334.3 420 305.7 450 282.2C480 258.7 510 240.3 540 250.8C570 261.3 600 300.7 630 313.8C660 327 690 314 720 301.2C750 288.3 780 275.7 810 263.7C840 251.7 870 240.3 885 234.7L900 229L900 0L885 0C870 0 840 0 810 0C780 0 750 0 720 0C690 0 660 0 630 0C600 0 570 0 540 0C510 0 480 0 450 0C420 0 390 0 360 0C330 0 300 0 270 0C240 0 210 0 180 0C150 0 120 0 90 0C60 0 30 0 15 0L0 0Z" fill="#011931" stroke-linecap="round" stroke-linejoin="miter"></path></svg>