<svg id="visual" viewBox="0 0 900 600" width="900" height="600" xmlns="http://www.w3.org/2000/svg" xmlns:xlink="http://www.w3.org/1999/xlink" version="1.1"><path d="M0 271L21.5 260.7C43 250.3 86 229.7 128.8 241.3C171.7 253 214.3 297 257.2 294.7C300 292.3 343 243.7 385.8 249.5C428.7 255.3 471.3 315.7 514.2 344C557 372.3 600 368.7 642.8 353C685.7 337.3 728.3 309.7 771.2 285.8C814 262 857 242 878.5 232L900 222L900 0L878.5 0C857 0 814 0 771.2 0C728.3 0 685.7 0 642.8 0C600 0 557 0 514.2 0C471.3 0 428.7 0 385.8 0C343 0 300 0 257.2 0C214.3 0 171.7 0 128.8 0C86 0 43 0 21.5 0L0 0Z" fill="#f9ba5c" stroke-linecap="round" stroke-linejoin="miter"></path></svg>